HIERARCHY
ROOT Hips
{
  OFFSET 52.3626 85.6996 7.07627
  CHANNELS 6 Xposition Yposition Zposition Zrotation Xrotation Yrotation
  JOINT spine
  {
    OFFSET 0 6.3926 0.367606
    CHANNELS 3 Zrotation Xrotation Yrotation
    JOINT spine1
    {
      OFFSET 0 9.17611 0
      CHANNELS 3 Zrotation Xrotation Yrotation
      JOINT spine2
      {
        OFFSET 0 8.79238 0
        CHANNELS 3 Zrotation Xrotation Yrotation
        JOINT Neck
        {
          OFFSET 0 22.5737 1.07624
          CHANNELS 3 Zrotation Xrotation Yrotation
          JOINT Head
          {
            OFFSET 0 6.82011 0
            CHANNELS 3 Zrotation Xrotation Yrotation
            End Site
            {
              OFFSET 0 16.5085 -5.44427
            }
          }
        }
        JOINT RightShoulder
        {
          OFFSET -3.70221 9.49509 -0.515508
          CHANNELS 3 Zrotation Xrotation Yrotation
          JOINT RightArm
          {
            OFFSET 0 12.4537 0
            CHANNELS 3 Zrotation Xrotation Yrotation
            JOINT RightArmRoll
            {
              OFFSET 0 6.28686 0
              CHANNELS 3 Zrotation Xrotation Yrotation
              JOINT RightForeArm
              {
                OFFSET 0 18.3114 0
                CHANNELS 3 Zrotation Xrotation Yrotation
                JOINT RightForeArmRoll
                {
                  OFFSET 0 7.05482 0
                  CHANNELS 3 Zrotation Xrotation Yrotation
                  JOINT RightHand
                  {
                    OFFSET 0 14.1575 0
                    CHANNELS 3 Zrotation Xrotation Yrotation
                    End Site
                    {
                      OFFSET 0 0 0
                    }
                  }
                }
              }
            }
          }
        }
        JOINT LeftShoulder
        {
          OFFSET 3.70221 9.49509 -0.515508
          CHANNELS 3 Zrotation Xrotation Yrotation
          JOINT LeftArm
          {
            OFFSET 0 12.4537 0
            CHANNELS 3 Zrotation Xrotation Yrotation
            JOINT LeftArmRoll
            {
              OFFSET 0 6.28685 0
              CHANNELS 3 Zrotation Xrotation Yrotation
              JOINT LeftForeArm
              {
                OFFSET 0 18.3114 0
                CHANNELS 3 Zrotation Xrotation Yrotation
                JOINT LeftForeArmRoll
                {
                  OFFSET 0 7.05482 0
                  CHANNELS 3 Zrotation Xrotation Yrotation
                  JOINT LeftHand
                  {
                    OFFSET 0 14.1575 0
                    CHANNELS 3 Zrotation Xrotation Yrotation
                    End Site
                    {
                      OFFSET 0 0 0
                    }
                  }
                }
              }
            }
          }
        }
      }
    }
  }
  JOINT RightUpLeg
  {
    OFFSET -5.66616 -1.03903 -0.87161
    CHANNELS 3 Zrotation Xrotation Yrotation
    JOINT RightUpLegRoll
    {
      OFFSET 0 16.6005 0
      CHANNELS 3 Zrotation Xrotation Yrotation
      JOINT RightLeg
      {
        OFFSET 0 -20.5572 0
        CHANNELS 3 Zrotation Xrotation Yrotation
        JOINT RightLegRoll
        {
          OFFSET 0 20.6244 0
          CHANNELS 3 Zrotation Xrotation Yrotation
          JOINT RightFoot
          {
            OFFSET 0 17.1664 0
            CHANNELS 3 Zrotation Xrotation Yrotation
            JOINT RightToeBase
            {
              OFFSET 0 14.3502 0
              CHANNELS 3 Zrotation Xrotation Yrotation
              End Site
              {
                OFFSET 0.00608252 6.94971 -0.801061
              }
            }
          }
        }
      }
    }
  }
  JOINT LeftUpLeg
  {
    OFFSET 5.66616 -1.03903 -0.87161
    CHANNELS 3 Zrotation Xrotation Yrotation
    JOINT LeftUpLegRoll
    {
      OFFSET 0 16.6006 0
      CHANNELS 3 Zrotation Xrotation Yrotation
      JOINT LeftLeg
      {
        OFFSET 0 20.5571 0
        CHANNELS 3 Zrotation Xrotation Yrotation
        JOINT LeftLegRoll
        {
          OFFSET 0 20.8151 0
          CHANNELS 3 Zrotation Xrotation Yrotation
          JOINT LeftFoot
          {
            OFFSET 0 16.9757 0
            CHANNELS 3 Zrotation Xrotation Yrotation
            JOINT LeftToeBase
            {
              OFFSET 0 14.3502 0
              CHANNELS 3 Zrotation Xrotation Yrotation
              End Site
              {
                OFFSET -0.0272592 6.94971 -0.80106
              }
            }
          }
        }
      }
    }
  }
}
MOTION
Frames: 10
Frame Time: 0.00208333
51.3825 85.5803 7.97524 -1.90306 -4.64499 -0.939322 -0.2413 -1.02482 -0.0612878 -0.483175 1.95332 -0.0849109 -0.482594 3.59837 -0.0768718 6.428 8.32604 -1.79411 -3.19722 4.70212 -0.132643 65.9621 -2.33848 -2.09206 104.744 18.2033 8.87982 -7.51393e-008 -1.91969e-006 -3.10216e-006 11.6407 0.373679 -0.563624 -3.54021e-007 1.6513e-006 -3.00892 8.02888 -4.95144 0.697673 -52.7399 0.740437 -1.32709 -113.014 14.1112 -2.29134 -3.35871e-005 -1.8352e-006 1.59404e-006 -8.39432 3.97785 0.902955 -1.13065e-005 2.87219e-006 3.00953 -8.02909 -4.95146 -0.697671 177.277 -3.87424 0.517113 180 7.01537e-015 178.882 176.404 5.09018 179.804 -1.26621e-006 1.71123e-006 0.0515224 -18.4708 67.8117 19.3807 8.13649 25.2327 -3.48774 -173.81 -2.41074 -0.419933 4.54188e-006 -4.6773e-006 -1.04092 -1.05277 -9.24878 0.55637 1.23964e-006 -7.81905e-006 -0.0844884 18.5919 70.2171 -21.4481 -8.13702 25.2405 3.48897 
51.3959 85.5859 7.97995 -1.89854 -4.6516 -0.941695 -0.243321 -1.02263 -0.0607636 -0.487218 1.9577 -0.0843844 -0.486642 3.60275 -0.0762805 6.45436 8.31851 -1.79411 -3.22134 4.71991 -0.12613 65.9796 -2.35079 -2.10024 104.685 18.2569 9.01465 -7.51393e-008 -1.91969e-006 -3.10216e-006 11.5547 0.352486 -0.581765 -3.54021e-007 1.6513e-006 -3.0103 8.02888 -4.95144 0.697673 -52.7311 0.735744 -1.32512 -113.007 14.1319 -2.3652 -3.35871e-005 -1.8352e-006 1.59404e-006 -8.32671 3.90907 0.897313 -1.13065e-005 2.87219e-006 3.00953 -8.02909 -4.95146 -0.697671 177.274 -3.88013 0.497127 180 7.01537e-015 178.88 176.449 5.09471 179.801 -1.26621e-006 1.71123e-006 0.0515224 -18.4735 67.8102 19.3795 8.13649 25.2327 -3.48774 -173.822 -2.45331 -0.415289 4.54188e-006 -4.6773e-006 -1.04366 -1.05477 -9.17598 0.552974 1.23964e-006 -7.81905e-006 -0.084458 18.6 70.1821 -21.4164 -8.13702 25.2405 3.48897 
51.4018 85.5866 7.991 -1.89391 -4.65818 -0.944194 -0.245426 -1.0204 -0.0601888 -0.491428 1.96215 -0.0837762 -0.49086 3.6072 -0.0756048 6.48182 8.30993 -1.79429 -3.24618 4.73839 -0.119547 65.9981 -2.3631 -2.10851 104.626 18.3106 9.14899 -7.51393e-008 -1.91969e-006 -3.10216e-006 11.4691 0.33055 -0.600001 -3.54021e-007 1.6513e-006 -3.01167 8.02888 -4.95144 0.697673 -52.7221 0.730929 -1.3231 -113.001 14.1522 -2.43703 -3.35871e-005 -1.8352e-006 1.59404e-006 -8.26052 3.84138 0.891662 -1.13065e-005 2.87219e-006 3.00953 -8.02909 -4.95146 -0.697671 177.272 -3.88611 0.476321 180 7.01537e-015 178.879 176.496 5.09927 179.798 -1.26621e-006 1.71123e-006 0.0515224 -18.4764 67.8087 19.3783 8.13649 25.2327 -3.48774 -173.834 -2.49713 -0.41042 4.54188e-006 -4.6773e-006 -1.04649 -1.05671 -9.10058 0.549471 1.23964e-006 -7.81905e-006 -0.0844127 18.6084 70.1458 -21.3837 -8.13702 25.2405 3.48897 
51.3998 85.588 7.98451 -1.88921 -4.66474 -0.94678 -0.24759 -1.01816 -0.0595787 -0.495758 1.96664 -0.0831108 -0.495197 3.61169 -0.0748701 6.51004 8.30062 -1.79458 -3.27154 4.75735 -0.112916 66.0172 -2.37541 -2.11683 104.567 18.3644 9.283 -7.51393e-008 -1.91969e-006 -3.10216e-006 11.3839 0.308095 -0.618303 -3.54021e-007 1.6513e-006 -3.01302 8.02888 -4.95144 0.697673 -52.7129 0.726028 -1.32104 -112.996 14.1724 -2.50744 -3.35871e-005 -1.8352e-006 1.59404e-006 -8.19533 3.77443 0.886005 -1.13065e-005 2.87219e-006 3.00953 -8.02909 -4.95146 -0.697671 177.269 -3.89213 0.454941 180 7.01536e-015 178.877 176.543 5.10388 179.795 -1.26621e-006 1.71123e-006 0.0515224 -18.4794 67.8072 19.3771 8.13649 25.2327 -3.48774 -173.846 -2.54182 -0.405392 4.54188e-006 -4.6773e-006 -1.04939 -1.05859 -9.02335 0.545893 1.23964e-006 -7.81905e-006 -0.084357 18.617 70.1087 -21.3503 -8.13702 25.2405 3.48897 
51.3939 85.5852 7.94864 -1.88447 -4.67129 -0.949416 -0.249788 -1.0159 -0.0589484 -0.500155 1.97116 -0.0824127 -0.499601 3.6162 -0.0741016 6.53871 8.2909 -1.79495 -3.29718 4.77659 -0.106256 66.0368 -2.38772 -2.12519 104.509 18.4182 9.41688 -7.51393e-008 -1.91969e-006 -3.10216e-006 11.2987 0.285343 -0.636642 -3.54021e-007 1.6513e-006 -3.01438 8.02888 -4.95144 0.697673 -52.7037 0.721078 -1.31896 -112.992 14.1924 -2.57705 -3.35871e-005 -1.8352e-006 1.59404e-006 -8.13072 3.70792 0.880346 -1.13065e-005 2.87219e-006 3.00953 -8.02909 -4.95146 -0.697671 177.266 -3.89819 0.433233 180 7.01536e-015 178.875 176.592 5.10847 179.792 -1.26621e-006 1.71123e-006 0.0515224 -18.4825 67.8057 19.376 8.13649 25.2327 -3.48774 -173.858 -2.58701 -0.400275 4.54188e-006 -4.6773e-006 -1.05233 -1.06043 -8.94508 0.542274 1.23964e-006 -7.81905e-006 -0.0842954 18.6257 70.071 -21.3166 -8.13702 25.2405 3.48897 
51.3948 85.5829 7.95274 -1.87972 -4.67784 -0.952065 -0.251995 -1.01364 -0.058313 -0.504568 1.97568 -0.0817065 -0.504023 3.62073 -0.0733247 6.56748 8.28107 -1.79533 -3.32291 4.79589 -0.0995892 66.0564 -2.40002 -2.13356 104.45 18.4719 9.55079 -7.51394e-008 -1.91969e-006 -3.10216e-006 11.2136 0.262517 -0.654991 -3.54021e-007 1.6513e-006 -3.01573 8.02888 -4.95144 0.697673 -52.6944 0.716117 -1.31687 -112.987 14.2124 -2.64647 -3.35871e-005 -1.8352e-006 1.59404e-006 -8.06627 3.64151 0.874687 -1.13065e-005 2.87219e-006 3.00953 -8.02909 -4.95146 -0.697671 177.263 -3.90425 0.411442 180 7.01535e-015 178.873 176.64 5.11309 179.789 -1.26621e-006 1.71123e-006 0.0515224 -18.4856 67.8042 19.3749 8.13649 25.2327 -3.48774 -173.871 -2.63233 -0.395134 4.54188e-006 -4.6773e-006 -1.05527 -1.06226 -8.86655 0.538647 1.23964e-006 -7.81905e-006 -0.0842323 18.6347 70.0332 -21.2829 -8.13702 25.2405 3.48897 
51.4149 85.5831 7.96545 -1.87499 -4.6844 -0.954689 -0.254184 -1.01138 -0.0576878 -0.508949 1.98019 -0.0810166 -0.508411 3.62524 -0.0725646 6.59604 8.27145 -1.79568 -3.34849 4.81506 -0.0929358 66.0758 -2.41233 -2.14191 104.391 18.5253 9.6849 -7.51393e-008 -1.91969e-006 -3.10216e-006 11.1284 0.239839 -0.673321 -3.54021e-007 1.6513e-006 -3.01708 8.02888 -4.95144 0.697673 -52.6851 0.711179 -1.3148 -112.982 14.2324 -2.7163 -3.35871e-005 -1.8352e-006 1.59404e-006 -8.00155 3.57489 0.869033 -1.13065e-005 2.87219e-006 3.00953 -8.02909 -4.95146 -0.697671 177.261 -3.9103 0.389815 180 7.01535e-015 178.871 176.689 5.11772 179.785 -1.26621e-006 1.71123e-006 0.0515224 -18.4887 67.8027 19.3738 8.13649 25.2327 -3.48774 -173.883 -2.6774 -0.390039 4.54188e-006 -4.6773e-006 -1.0582 -1.06409 -8.78854 0.535044 1.23964e-006 -7.81905e-006 -0.0841722 18.6437 69.9956 -21.2496 -8.13702 25.2405 3.48897 
51.408 85.5829 7.9561 -1.87031 -4.69096 -0.95725 -0.256332 -1.00914 -0.0570878 -0.513245 1.98467 -0.0803675 -0.512715 3.62971 -0.0718467 6.62404 8.26235 -1.79594 -3.37372 4.83389 -0.0863166 66.0948 -2.42464 -2.15022 104.332 18.5785 9.81941 -7.51393e-008 -1.91969e-006 -3.10216e-006 11.043 0.217533 -0.691604 -3.54021e-007 1.6513e-006 -3.01844 8.02888 -4.95144 0.697673 -52.676 0.706303 -1.31275 -112.977 14.2525 -2.78717 -3.35871e-005 -1.8352e-006 1.59404e-006 -7.93613 3.50773 0.863387 -1.13065e-005 2.87219e-006 3.00953 -8.02909 -4.95146 -0.697671 177.258 -3.91631 0.368598 180 7.01534e-015 178.869 176.736 5.12231 179.782 -1.26621e-006 1.71123e-006 0.0515224 -18.4917 67.8012 19.3726 8.13649 25.2327 -3.48774 -173.895 -2.72184 -0.385056 4.54188e-006 -4.6773e-006 -1.06108 -1.06594 -8.71183 0.531499 1.23964e-006 -7.81905e-006 -0.0841195 18.6527 69.9587 -21.217 -8.13702 25.2405 3.48897 
51.4034 85.5824 7.95351 -1.86572 -4.69755 -0.959711 -0.258412 -1.00693 -0.0565282 -0.517405 1.9891 -0.0797838 -0.516882 3.63414 -0.0711964 6.65117 8.25408 -1.79606 -3.39837 4.85216 -0.0797525 66.1129 -2.43695 -2.15846 104.271 18.6313 9.95447 -7.51393e-008 -1.91969e-006 -3.10216e-006 10.9572 0.195821 -0.709811 -3.54021e-007 1.6513e-006 -3.01981 8.02888 -4.95144 0.697673 -52.6671 0.701524 -1.31074 -112.97 14.2729 -2.85969 -3.35871e-005 -1.8352e-006 1.59404e-006 -7.8696 3.4397 0.857752 -1.13065e-005 2.87219e-006 3.00953 -8.02909 -4.95146 -0.697671 177.255 -3.92225 0.348036 180 7.01534e-015 178.867 176.782 5.12685 179.779 -1.26621e-006 1.71123e-006 0.0515224 -18.4945 67.7996 19.3714 8.13649 25.2327 -3.48774 -173.907 -2.76529 -0.380254 4.54188e-006 -4.6773e-006 -1.06388 -1.06784 -8.63721 0.528043 1.23964e-006 -7.81905e-006 -0.0840787 18.6618 69.9228 -21.1854 -8.13702 25.2405 3.48897 
51.4037 85.5784 7.9489 -1.86124 -4.70416 -0.962035 -0.260399 -1.00475 -0.0560241 -0.521381 1.99346 -0.07929 -0.520863 3.6385 -0.0706388 6.67709 8.24697 -1.79599 -3.42223 4.86967 -0.073264 66.13 -2.44926 -2.16661 104.21 18.6837 10.0903 -7.51393e-008 -1.91969e-006 -3.10216e-006 10.871 0.174925 -0.727916 -3.54021e-007 1.6513e-006 -3.02119 8.02888 -4.95144 0.697673 -52.6583 0.69688 -1.30879 -112.963 14.2935 -2.93448 -3.35871e-005 -1.8352e-006 1.59404e-006 -7.80153 3.3705 0.852131 -1.13065e-005 2.87219e-006 3.00953 -8.02909 -4.95146 -0.697671 177.252 -3.92811 0.328376 180 7.01533e-015 178.865 176.827 5.13135 179.776 -1.26621e-006 1.71123e-006 0.0515224 -18.4971 67.7981 19.3701 8.13649 25.2327 -3.48774 -173.918 -2.80736 -0.375699 4.54188e-006 -4.6773e-006 -1.06658 -1.0698 -8.56546 0.524709 1.23964e-006 -7.81905e-006 -0.0840542 18.6708 69.8882 -21.1551 -8.13702 25.2405 3.48897 
